<svg xmlns="http://www.w3.org/2000/svg" xmlns:xlink="http://www.w3.org/1999/xlink" width="13" height="51" viewBox="0 0 13 51"><svg width="9" height="14" viewBox="0 0 9 14" id="arrow" y="0"><title>arrow</title><g transform="translate(-6 -5)" fill="none" fill-rule="evenodd"><path d="M0 0h24v24H0z"></path><path stroke="#000" stroke-width="2" stroke-linecap="round" d="M13.657 17.314L8 11.657 13.657 6"></path></g></svg><svg width="12" height="12" viewBox="0 0 12 12" id="calendar" y="14"><title>calendar</title><g transform="translate(-2 -2)" fill="none" fill-rule="evenodd"><path d="M0 0h16v16H0z"></path><path d="M3 6v7h10V6H3zm9-3h2v11H2V3h2V2h2v1h4V2h2v1zM4 7v2h2V7H4zm3 0v2h2V7H7zm-3 3v2h2v-2H4z" fill="#000" fill-rule="nonzero"></path></g></svg><svg width="13" height="13" viewBox="0 0 13 13" id="close" y="26"><title>close</title><g transform="translate(-6 -5)" fill="none" fill-rule="evenodd"><path d="M0 0h24v24H0z"></path><path d="M12.364 9.95L8.121 5.707a1 1 0 0 0-1.414 1.414l4.243 4.243-4.243 4.243a1 1 0 1 0 1.414 1.414l4.243-4.243 4.243 4.243a1 1 0 0 0 1.414-1.414l-4.243-4.243 4.243-4.243a1 1 0 1 0-1.414-1.414L12.364 9.95z" fill="#000"></path></g></svg><svg width="12" height="12" viewBox="0 0 12 12" id="edit" y="39"><title>edit</title><g transform="translate(-2 -2)" fill="none" fill-rule="evenodd"><path d="M0 0h16v16H0z"></path><path d="M13.08 5.106a.58.58 0 0 0 0-.822l-1.365-1.365a.58.58 0 0 0-.823 0L9.82 3.986l2.187 2.187 1.073-1.067zM2.75 11.06v2.187h2.187l6.451-6.456-2.187-2.188-6.451 6.457z" fill="#000" fill-rule="nonzero"></path></g></svg></svg>